<?xml version="1.0" encoding="UTF-8" standalone="no"?>
<!-- Created with Inkscape (http://www.inkscape.org/) -->

<svg
   xmlns:dc="http://purl.org/dc/elements/1.1/"
   xmlns:cc="http://creativecommons.org/ns#"
   xmlns:rdf="http://www.w3.org/1999/02/22-rdf-syntax-ns#"
   xmlns:svg="http://www.w3.org/2000/svg"
   xmlns="http://www.w3.org/2000/svg"
   xmlns:sodipodi="http://sodipodi.sourceforge.net/DTD/sodipodi-0.dtd"
   xmlns:inkscape="http://www.inkscape.org/namespaces/inkscape"
   version="1.1"
   width="120.00897"
   height="239.6037"
   id="svg2"
   inkscape:version="0.48.2 r9819"
   sodipodi:docname="alice.svg">
  <sodipodi:namedview
     pagecolor="#ffffff"
     bordercolor="#666666"
     borderopacity="1"
     objecttolerance="10"
     gridtolerance="10"
     guidetolerance="10"
     inkscape:pageopacity="0"
     inkscape:pageshadow="2"
     inkscape:window-width="1280"
     inkscape:window-height="752"
     id="namedview7"
     showgrid="false"
     fit-margin-top="0"
     fit-margin-left="0"
     fit-margin-right="0"
     fit-margin-bottom="0"
     inkscape:zoom="0.39333333"
     inkscape:cx="150.50476"
     inkscape:cy="300.49591"
     inkscape:window-x="0"
     inkscape:window-y="0"
     inkscape:window-maximized="0"
     inkscape:current-layer="svg2" />
  <defs
     id="defs4" />
  <metadata
     id="metadata7">
    <rdf:RDF>
      <cc:Work
         rdf:about="">
        <dc:format>image/svg+xml</dc:format>
        <dc:type
           rdf:resource="http://purl.org/dc/dcmitype/StillImage" />
        <dc:title></dc:title>
      </cc:Work>
    </rdf:RDF>
  </metadata>
  <g
     transform="matrix(0.39867105,0,0,0.39867105,-53.93909,1.2834257)"
     id="layer1">
    <path
       d="m 261.41515,595.11672 c -4.67343,-2.9445 -4.38509,-7.40594 1.48939,-23.0448 5.93659,-15.80422 6.17916,-25.04661 1.11583,-42.51468 -2.08866,-7.2057 -4.849,-21.22254 -6.13407,-31.14852 -4.95661,-38.28521 -3.27723,-34.6813 -17.62481,-37.82257 -29.71288,-6.50536 -77.06851,-24.8446 -78.03639,-30.22088 -0.32952,-1.83029 -3.72684,-4.46021 -7.5496,-5.8443 -5.17242,-1.87271 -7.10434,-3.90484 -7.55191,-7.94358 -0.34413,-3.10555 -2.66613,-6.62242 -5.42817,-8.22143 -7.20236,-4.16965 -7.73536,-9.39061 -1.92779,-18.88374 2.8324,-4.62989 11.43238,-23.29097 19.11105,-41.46906 7.67868,-18.17808 15.80106,-36.27206 18.04972,-40.20885 3.64976,-6.3897 3.76607,-7.50654 1.08398,-10.40786 -2.6821,-2.90132 -1.91119,-4.4598 7.1843,-14.5235 5.60386,-6.20038 16.21253,-18.57011 23.57483,-27.48827 l 13.38601,-16.21489 -4.94613,-3.50571 c -6.33583,-4.49072 -6.33301,-10.05124 0.0179,-36.49505 2.73055,-11.36833 4.96464,-21.07969 4.96464,-21.58081 0,-0.50113 -2.90432,-1.21404 -6.45403,-1.58428 -5.41697,-0.56499 -6.55691,-1.64389 -7.09434,-6.71453 -0.52328,-4.93721 -1.15414,-5.58007 -3.45174,-3.51735 -4.14547,3.72162 -5.58664,-2.12919 -4.30134,-17.46234 0.80251,-9.57351 3.80814,-18.85895 12.01017,-37.10358 6.01688,-13.384004 13.64832,-32.635681 16.95878,-42.781506 11.23781,-34.44163 20.15846,-48.221757 34.78791,-53.738461 l 5.77055,-2.176036 -5.38015,-3.0493756 c -4.35824,-2.4701638 -4.93155,-3.6340659 -3.01836,-6.1277521 3.04411,-3.96774165 6.70557,-3.91410174 9.8189,0.1439277 3.65216,4.7602675 9.7927,4.1954051 8.5875,-0.7899695 -0.72958,-3.01794806 0.33952,-4.2830077 4.31413,-5.1049205 3.41007,-0.7051381 5.65607,-0.044038 6.33297,1.86405644 0.67243,1.89383016 4.20858,2.95674656 9.83717,2.95674656 13.39353,0 21.65367,4.6916548 26.55406,15.082351 4.88254,10.352866 5.55179,18.482286 2.09651,25.466258 -1.33918,2.706828 -2.8388,14.506597 -3.33246,26.221685 -0.49367,11.715088 -1.65418,23.476254 -2.57889,26.135886 -1.14969,3.306685 -0.45963,8.39326 2.18237,16.08664 2.5162,7.32702 4.08079,18.19046 4.4861,31.14853 0.4977,15.91081 1.67801,22.4587 5.89082,32.67978 l 5.26841,12.78217 22.27427,-23.97259 22.27428,-23.97259 13.73521,-1.49489 c 12.69563,-1.38173 13.63162,-1.20285 12.36651,2.36346 -1.2496,3.52256 -0.32788,3.75626 10.59072,2.68526 6.57769,-0.6452 12.41937,-0.36807 12.98151,0.61584 0.56213,0.98391 -1.13289,4.49899 -3.76673,7.8113 -4.45612,5.60398 -6.07916,6.09982 -23.36216,7.13703 l -18.57336,1.11466 -5.14894,10.32857 c -11.32453,22.71656 -40.62422,53.04256 -51.24746,53.04256 -2.92471,0 -6.2144,1.75255 -7.51348,4.00274 -1.99416,3.45413 -0.94962,5.44145 7.62141,14.50017 18.01513,19.04026 68.41487,91.82698 70.08688,101.21867 0.37753,2.12068 5.21859,11.92759 10.75791,21.79316 13.77972,24.5419 14.02056,25.75005 6.48882,32.55177 -3.42209,3.09039 -6.22196,6.65273 -6.22196,7.91628 0,4.60324 -24.55161,26.72864 -37.42384,33.72558 -13.40191,7.28487 -44.83764,18.97925 -58.34332,21.70427 -6.62216,1.33612 -7.51858,2.31193 -8.56097,9.31919 -0.64038,4.30472 -3.3439,20.48243 -6.00787,35.95044 -6.79698,39.46621 -6.79068,39.52842 5.08574,50.28469 19.01882,17.225 11.60541,20.30091 -23.03013,9.55542 -3.75642,-1.1654 -4.40717,0.0397 -6.6407,12.29873 -1.3619,7.47489 -2.81095,14.79907 -3.22012,16.27594 -0.88994,3.21229 -10.38651,3.43933 -15.26601,0.36497 z"
       id="path3050"
       style="fill:none;stroke:#ffffff"
       inkscape:connector-curvature="0" />
  </g>
</svg>
