<?xml version="1.0" encoding="UTF-8" standalone="no"?>
<!-- Created with Inkscape (http://www.inkscape.org/) -->

<svg
   xmlns:dc="http://purl.org/dc/elements/1.1/"
   xmlns:cc="http://creativecommons.org/ns#"
   xmlns:rdf="http://www.w3.org/1999/02/22-rdf-syntax-ns#"
   xmlns:svg="http://www.w3.org/2000/svg"
   xmlns="http://www.w3.org/2000/svg"
   xmlns:sodipodi="http://sodipodi.sourceforge.net/DTD/sodipodi-0.dtd"
   xmlns:inkscape="http://www.inkscape.org/namespaces/inkscape"
   version="1.1"
   width="300.00821"
   height="250.26706"
   id="svg4526"
   inkscape:version="0.48.2 r9819"
   sodipodi:docname="bule.svg">
  <sodipodi:namedview
     pagecolor="#ffffff"
     bordercolor="#666666"
     borderopacity="1"
     objecttolerance="10"
     gridtolerance="10"
     guidetolerance="10"
     inkscape:pageopacity="0"
     inkscape:pageshadow="2"
     inkscape:window-width="1280"
     inkscape:window-height="752"
     id="namedview7"
     showgrid="false"
     fit-margin-top="0"
     fit-margin-left="0"
     fit-margin-right="0"
     fit-margin-bottom="0"
     inkscape:zoom="0.47143123"
     inkscape:cx="299.9693"
     inkscape:cy="250.26462"
     inkscape:window-x="0"
     inkscape:window-y="0"
     inkscape:window-maximized="0"
     inkscape:current-layer="svg4526" />
  <defs
     id="defs4528" />
  <metadata
     id="metadata4531">
    <rdf:RDF>
      <cc:Work
         rdf:about="">
        <dc:format>image/svg+xml</dc:format>
        <dc:type
           rdf:resource="http://purl.org/dc/dcmitype/StillImage" />
        <dc:title></dc:title>
      </cc:Work>
    </rdf:RDF>
  </metadata>
  <g
     transform="matrix(0.50005802,0,0,0.50005802,-31.717586,-140.00062)"
     id="layer1"
     style="stroke:#ffffff">
    <path
       d="m 511.85984,588.50067 c -6.68503,-14.21748 4.97943,-78.76498 19.79806,-111.56458 8.20348,-18.15756 10.88235,-31.84459 8.57401,-43.80693 -2.74437,-14.22202 -0.8558,-19.2638 10.34494,-27.61714 17.55881,-13.09509 37.49485,-7.68288 49.68192,13.48758 12.26363,21.30357 8.23598,70.24045 -0.81519,101.48581 -7.86872,27.16344 -26.48736,87.63947 -40.9866,68.78491 27.78707,45.30327 90.74467,-70.58325 98.55756,-103.14774 18.60392,-77.54188 -8.57511,-139.42257 -61.23677,-139.42257 -19.66146,0 -43.40239,20.02095 -55.28582,46.62304 -7.44113,16.65766 -11.68082,19.11433 -32.55734,18.86518 -36.84977,-0.43978 -71.82542,-9.99656 -88.47257,-24.17429 -8.29182,-7.06181 -22.10737,-14.86297 -30.70123,-17.33592 -16.95008,-4.87747 -19.15887,-14.38105 -9.21454,-39.64658 5.33505,-13.55475 4.48751,-19.1178 -5.0513,-33.15583 l -11.46196,-16.86827 -9.69992,23.663 c -7.03402,17.1595 -7.98813,25.6446 -3.47154,30.87309 11.50451,13.31784 6.92576,30.43768 -9.39681,35.13459 -8.59387,2.47295 -22.01734,9.8674 -29.82993,16.43214 -7.81261,6.56474 -32.0767,16.22463 -53.92022,21.46645 -44.78278,10.74656 -62.35484,27.7528 -68.61952,66.40995 -5.64278,34.8195 -21.98113,30.4879 -62.12173,-16.4696 -35.241158,-41.22604 -43.739539,-45.67918 -57.273954,-30.01147 -7.100324,8.21947 -6.603189,10.72065 3.808829,19.16302 16.818605,13.637 34.246545,46.04481 53.513985,99.51099 19.82598,55.01611 47.12806,92.00637 75.61103,102.44173 37.81419,13.85405 86.274,40.76719 86.274,47.91401 0,3.85575 -7.73314,16.24661 -17.18474,27.53524 -17.03963,20.35145 -17.08957,20.62448 -5.91459,32.33173 6.19857,6.49382 19.68463,14.1148 29.96901,16.93552 27.46681,7.53335 95.08816,7.4514 129.74565,-0.15721 l 0,-2e-5 c 16.61573,-3.64778 34.92526,-11.57174 40.68783,-17.60879 10.10942,-10.59094 9.87384,-11.69733 -6.70734,-31.50123 -9.45162,-11.28863 -17.18475,-23.71921 -17.18475,-27.6235 0,-8.54167 51.27881,-35.02855 67.81554,-35.02855 8.41945,0 11.73094,-4.22869 11.73094,-14.98014 0,-23.11348 48.06287,-14.40532 -9.05164,-58.39025"
       id="path2986"
       style="fill:none;stroke:#ffffff"
       inkscape:connector-curvature="0" />
  </g>
</svg>
