<?xml version="1.0" encoding="UTF-8" standalone="no"?>
<!-- Created with Inkscape (http://www.inkscape.org/) -->

<svg
   xmlns:dc="http://purl.org/dc/elements/1.1/"
   xmlns:cc="http://creativecommons.org/ns#"
   xmlns:rdf="http://www.w3.org/1999/02/22-rdf-syntax-ns#"
   xmlns:svg="http://www.w3.org/2000/svg"
   xmlns="http://www.w3.org/2000/svg"
   version="1.1"
   width="600.06506"
   height="600.0069"
   id="svg2">
  <defs
     id="defs4" />
  <metadata
     id="metadata7">
    <rdf:RDF>
      <cc:Work
         rdf:about="">
        <dc:format>image/svg+xml</dc:format>
        <dc:type
           rdf:resource="http://purl.org/dc/dcmitype/StillImage" />
        <dc:title></dc:title>
      </cc:Work>
    </rdf:RDF>
  </metadata>
  <path
     d="m 261.52019,594.3098 c -2.75121,-3.1945 -4.8593,-3.8837 -7.04073,-2.30186 -2.18143,1.58184 -4.38409,1.33665 -7.35662,-0.81886 -5.8087,-4.21207 -11.96345,-3.85819 -16.08268,0.92478 -3.2891,3.81908 -3.84486,3.74581 -12.19192,-1.60724 -18.63343,-11.94978 -31.69633,-21.76728 -31.69633,-23.8216 0,-1.17994 -1.18211,-2.14535 -2.62691,-2.14535 -1.4448,0 -2.44221,-1.68759 -2.21645,-3.7502 0.23228,-2.12227 -1.32488,-3.4858 -3.5872,-3.14109 -2.7208,0.41455 -1.94649,-1.79751 2.42418,-6.92559 3.53199,-4.14408 5.58978,-8.51095 4.57281,-9.70414 -1.01697,-1.1932 1.5493,-5.40025 5.70282,-9.34902 4.15352,-3.94874 7.55184,-7.77852 7.55184,-8.5106 0,-0.73209 9.3751,-8.12929 20.83355,-16.43824 21.41118,-15.52602 38.30925,-36.38536 38.22588,-47.18688 -0.0709,-9.19254 -8.3503,-31.43131 -17.74272,-47.65787 l -9.00654,-15.55988 -24.8315,0.75 c -19.64142,0.59327 -28.64516,-0.20712 -43.07773,-3.82886 -15.28508,-3.83577 -26.49295,-4.69135 -69.06023,-5.27194 -32.24526,-0.43982 -53.24838,-1.63785 -57.4759,-3.27847 -3.66409,-1.42197 -10.42044,-1.98681 -15.01408,-1.2552 -6.80849,1.08437 -9.56572,0.21959 -14.91858,-4.679 -5.60967,-5.13363 -6.3624,-7.89199 -5.16593,-18.93012 2.12921,-19.6435 10.52181,-29.46175 34.99805,-40.94327 11.66369,-5.47129 21.92008,-12.00685 23.46415,-14.95177 2.61946,-4.99599 13.78558,-9.89686 18.23344,-8.00274 3.3928,1.44481 32.98729,-10.19347 37.33948,-14.68408 3.03049,-3.1269 6.04112,-3.78054 12.60084,-2.73581 5.93372,0.94503 12.79937,-0.0947 22.0367,-3.33732 11.91536,-4.18267 13.23226,-5.34217 11.76178,-10.35591 -2.19884,-7.49698 3.22589,-30.63115 7.64733,-32.61265 1.9229,-0.86179 4.98462,-1.1527 6.80377,-0.64651 2.20939,0.61482 2.93122,-1.9413 2.17405,-7.69866 -0.77393,-5.88466 0.0328,-8.61906 2.54259,-8.61906 6.07175,0 1.58921,-25.14906 -5.76886,-32.36585 -7.32669,-7.18601 -7.73392,-10.18805 -1.61299,-11.89124 6.12935,-1.70557 2.91262,-26.26953 -3.95629,-30.21126 -3.8503,-2.20953 -3.92194,-2.7051 -0.409,-2.82935 2.61394,-0.0924 1.97598,-0.86198 -1.65161,-1.99236 -3.25081,-1.01295 -4.24822,-1.9095 -2.21646,-1.99237 4.88876,-0.19938 4.79171,-4.43654 -0.10166,-4.43654 -3.29044,0 -13.93592,-10.38088 -13.93592,-13.58951 0,-0.62803 4.68999,-0.58998 10.42219,0.0847 10.38107,1.22158 10.40977,1.20274 7.27363,-4.77862 -3.58143,-6.83071 -0.37898,-9.48687 11.50475,-9.54228 6.36573,-0.0296 6.87971,0.66576 5.39512,7.29962 -1.64067,7.33142 -1.63964,7.33215 7.15235,5.10967 4.83634,-1.22252 9.39636,-1.78549 10.13343,-1.25103 2.68052,1.94375 -5.14233,14.22022 -9.97535,15.65428 -4.42319,1.31251 -4.31998,1.66572 0.94533,3.23568 5.91055,1.76233 5.91055,1.76233 0,1.94577 -4.36029,0.13536 -4.88435,0.65521 -1.99808,1.98219 3.2174,1.47921 3.1685,2.3382 -0.27543,4.83544 -2.68715,1.94852 -3.37156,4.55582 -1.90997,7.27607 1.2528,2.33167 1.52581,7.51015 0.60669,11.50771 -1.36451,5.93465 -0.40009,7.96357 5.25587,11.05721 6.90735,3.7781 6.91155,3.80971 1.47624,11.1283 -4.23715,5.70532 -4.98508,9.59128 -3.35917,17.45342 l 2.0916,10.114 8.60205,-8.61084 c 15.0802,-15.09561 22.01486,-16.91773 54.09095,-14.21272 24.80475,2.09183 38.80668,-0.56869 50.79749,-9.652 8.25493,-6.25334 8.74308,-7.61865 8.74308,-24.45395 0,-16.87524 -0.54521,-18.38912 -10.17334,-28.24806 -5.59533,-5.72947 -17.42184,-16.46722 -26.28109,-23.861646 -8.85926,-7.39444 -15.34792,-13.99538 -14.41925,-14.66879 0.92863,-0.67341 4.11096,0.90358 7.07179,3.50441 11.29248,9.91947 13.45468,11.04129 16.71892,8.67426 2.22364,-1.61235 2.10607,-3.03438 -0.40094,-4.85232 -1.95048,-1.41436 -3.54633,-5.27171 -3.54633,-8.5719 0,-5.40152 -1.0081,-6.00033 -10.10174,-6.00033 -15.39194,0 -19.11121,-1.79925 -26.97227,-13.048343 -3.98589,-5.70375 -10.07762,-11.468949 -13.53716,-12.81153 -5.54143,-2.150506 -6.08198,-3.715027 -4.5418,-13.144978 3.72619,-22.814102 20.09824,-34.131474 53.83977,-37.21744 14.35148,-1.312545 15.41565,-1.04078 26.97983,6.890522 14.24066,9.767009 21.61773,19.495624 21.61773,28.508829 0,5.25192 1.24364,6.535352 6.33273,6.535352 3.63408,0 12.44968,4.435616 20.68692,10.408725 13.11037,9.506825 16.17387,14.413373 14.57478,23.343133 -0.29022,1.62077 2.99345,2.67871 8.31441,2.67871 10.95323,0 17.73835,6.556 26.49071,25.596056 7.09984,15.44512 8.0869,23.69236 2.83556,23.69236 -1.93189,0 -0.60203,1.96623 2.95527,4.36942 5.07994,3.43184 6.45228,6.76566 6.39553,15.53655 -0.0925,14.31267 -4.88151,29.3498 -10.87708,34.15386 -3.03542,2.4322 -4.85534,8.24591 -5.1453,16.43675 -0.24677,6.97041 -2.0293,14.05455 -3.9612,15.74251 -2.81152,2.45651 -2.04537,4.0685 3.83875,8.07692 4.04321,2.75435 7.35127,6.28634 7.35127,7.84883 0,1.5625 2.39939,2.84092 5.33197,2.84092 7.77579,0 30.12069,10.87442 41.21358,20.0571 10.33585,8.556 12.16197,16.38776 6.07857,26.06947 -4.24389,6.75412 -0.1516,9.50676 14.20978,9.55796 5.06335,0.0172 12.37766,1.83128 16.254,4.02942 11.4109,6.47064 37.31546,15.29016 44.91018,15.29016 6.92102,0 16.81027,5.84149 16.81027,9.92969 0,1.15049 7.93691,7.34201 17.63757,13.75896 10.30547,6.81704 17.63806,13.44957 17.6388,15.95478 6.8e-4,2.35815 0.88818,11.82152 1.97221,21.0297 l 1.97098,16.74214 -10.00516,7.54916 c -5.5028,4.15204 -13.69934,8.95204 -18.21446,10.6667 -10.10393,3.837 -26.79038,2.15085 -38.62621,-3.90315 -7.51254,-3.84267 -9.77527,-4.0295 -21.05774,-1.73887 -7.73356,1.5701 -19.95391,2.03629 -31.47917,1.20086 -26.54219,-1.92392 -44.20334,-1.95138 -76.46626,-0.11881 -33.04219,1.87679 -36.8739,3.68188 -48.83229,23.00446 -6.81403,11.01024 -7.82965,15.04694 -6.59405,26.20898 1.40199,12.66498 5.22611,20.13128 36.06503,70.41375 4.20748,6.86023 6.29538,11.8661 4.6398,11.12414 -4.06219,-1.82052 -3.80039,-0.18692 1.42279,8.87785 5.23092,9.07824 5.39571,9.99726 1.47763,8.24135 -3.79365,-1.70014 -3.75644,0.26773 0.10403,5.49833 2.21743,3.00445 2.10415,4.14505 -0.41164,4.14505 -2.42669,0 -2.94611,3.21293 -1.72656,10.67985 1.21521,7.44041 0.72103,10.52797 -1.6293,10.17913 -1.85549,-0.27539 -3.9285,1.35977 -4.60667,3.63369 -1.71643,5.75512 -8.55351,10.4509 -11.01374,7.56434 -1.34631,-1.57961 -3.10358,-1.5567 -5.81628,0.0758 -2.13793,1.28661 -7.21033,1.73449 -11.27203,0.99527 -5.38323,-0.97974 -8.21899,-0.27868 -10.46219,2.58646 -2.68853,3.43392 -3.89201,3.56835 -9.52617,1.06405 -5.47264,-2.4325 -7.12469,-2.37644 -10.91268,0.37036 -3.54763,2.57254 -5.61209,2.721 -10.05921,0.72347 -4.3965,-1.9748 -6.12885,-1.89196 -8.08474,0.38662 -1.99554,2.32477 -3.81064,2.38717 -9.15147,0.31448 -5.33394,-2.07 -7.15194,-2.01087 -9.11858,0.29658 -1.9563,2.29529 -3.20343,2.34035 -6.12578,0.22125 -4.41932,-3.2046 -13.42699,-3.50668 -14.81064,-0.49669 -0.54715,1.19027 -2.76197,0.11237 -4.9218,-2.39563 z"
     id="path2997"
     style="fill:none;stroke:#ffffff;stroke-width:1;stroke-miterlimit:4;stroke-dasharray:none" />
</svg>
