<?xml version="1.0" encoding="UTF-8" standalone="no"?>
<!-- Created with Inkscape (http://www.inkscape.org/) -->

<svg
   xmlns:dc="http://purl.org/dc/elements/1.1/"
   xmlns:cc="http://creativecommons.org/ns#"
   xmlns:rdf="http://www.w3.org/1999/02/22-rdf-syntax-ns#"
   xmlns:svg="http://www.w3.org/2000/svg"
   xmlns="http://www.w3.org/2000/svg"
   xmlns:sodipodi="http://sodipodi.sourceforge.net/DTD/sodipodi-0.dtd"
   xmlns:inkscape="http://www.inkscape.org/namespaces/inkscape"
   version="1.1"
   width="300.0235"
   height="300.00366"
   id="svg2"
   inkscape:version="0.48.2 r9819"
   sodipodi:docname="lagarta.svg">
  <sodipodi:namedview
     pagecolor="#ffffff"
     bordercolor="#666666"
     borderopacity="1"
     objecttolerance="10"
     gridtolerance="10"
     guidetolerance="10"
     inkscape:pageopacity="0"
     inkscape:pageshadow="2"
     inkscape:window-width="1280"
     inkscape:window-height="752"
     id="namedview3142"
     showgrid="false"
     fit-margin-top="0"
     fit-margin-left="0"
     fit-margin-right="0"
     fit-margin-bottom="0"
     inkscape:zoom="0.39332881"
     inkscape:cx="299.27478"
     inkscape:cy="299.24755"
     inkscape:window-x="0"
     inkscape:window-y="0"
     inkscape:window-maximized="0"
     inkscape:current-layer="svg2" />
  <defs
     id="defs4" />
  <metadata
     id="metadata7">
    <rdf:RDF>
      <cc:Work
         rdf:about="">
        <dc:format>image/svg+xml</dc:format>
        <dc:type
           rdf:resource="http://purl.org/dc/dcmitype/StillImage" />
        <dc:title></dc:title>
      </cc:Work>
    </rdf:RDF>
  </metadata>
  <path
     d="m 130.7089,297.52556 c -1.37909,-1.6013 -2.4358,-1.94677 -3.52928,-1.15385 -1.09348,0.79293 -2.1976,0.67002 -3.68763,-0.41046 -2.91171,-2.11137 -5.99689,-1.93399 -8.06172,0.46356 -1.64872,1.91438 -1.9273,1.87765 -6.11141,-0.80566 -9.34032,-5.99003 -15.888323,-10.91122 -15.888323,-11.94098 0,-0.59146 -0.592552,-1.07539 -1.316783,-1.07539 -0.72423,0 -1.224199,-0.84594 -1.111033,-1.87985 0.116434,-1.06383 -0.664119,-1.74732 -1.798145,-1.57453 -1.363847,0.2078 -0.975711,-0.90103 1.215161,-3.47157 1.77047,-2.07729 2.801973,-4.26626 2.292199,-4.86436 -0.509773,-0.59812 0.776613,-2.70697 2.858636,-4.68636 2.082022,-1.97937 3.785488,-3.89911 3.785488,-4.26608 0,-0.36697 4.69943,-4.07495 10.44317,-8.23995 10.73272,-7.78268 19.20316,-18.23878 19.16137,-23.65323 -0.0355,-4.60791 -4.18573,-15.75547 -8.89384,-23.88931 l -4.51468,-7.79966 -12.44721,0.37595 c -9.845595,0.29739 -14.358873,-0.10382 -21.593444,-1.91928 -7.661907,-1.92274 -13.280042,-2.35162 -34.617615,-2.64265 -16.163485,-0.22047 -26.691656,-0.821 -28.810773,-1.64339 -1.836687,-0.71278 -5.223422,-0.99592 -7.526063,-0.62919 -3.4128711,0.54356 -4.7949796,0.11008 -7.4781917,-2.34543 -2.81194245,-2.57332 -3.18926114,-3.95599 -2.58951025,-9.48904 1.06730275,-9.84664 5.27423625,-14.7682 17.54336795,-20.52351 5.846623,-2.74258 10.987813,-6.01864 11.761804,-7.49483 1.313049,-2.50432 6.910257,-4.96097 9.139822,-4.01151 1.700699,0.72424 16.53544,-5.10965 18.71705,-7.36064 1.519084,-1.56742 3.028214,-1.89506 6.316385,-1.37138 2.974378,0.47372 6.415902,-0.0475 11.046271,-1.67288 5.972776,-2.09664 6.632895,-2.67786 5.895792,-5.19108 -1.102206,-3.75799 1.617032,-15.35438 3.833354,-16.34765 0.963886,-0.43198 2.498626,-0.57781 3.410505,-0.32407 1.107495,0.30819 1.469324,-0.97311 1.08978,-3.85908 -0.387946,-2.94979 0.01644,-4.32045 1.274517,-4.32045 3.043567,0 0.796618,-12.606403 -2.89174,-16.223943 -3.672628,-3.60211 -3.876759,-5.10693 -0.808538,-5.96068 3.072441,-0.85495 1.46,-13.16805 -1.983158,-15.14391 -1.930028,-1.10757 -1.965939,-1.35598 -0.205018,-1.41826 1.310282,-0.0463 0.990493,-0.43208 -0.827898,-0.99871 -1.629524,-0.50775 -2.129492,-0.95716 -1.111038,-0.9987 2.450574,-0.1 2.401926,-2.2239 -0.05096,-2.2239 -1.649389,0 -6.985617,-5.20359 -6.985617,-6.81197 0,-0.31481 2.350937,-0.29574 5.2243,0.0425 5.203688,0.61234 5.218074,0.60289 3.646031,-2.39537 -1.795253,-3.42401 -0.18997,-4.75545 5.766952,-4.78323 3.19093,-0.0148 3.448571,0.33373 2.704395,3.65906 -0.822414,3.675 -0.821897,3.67537 3.585237,2.56131 2.424298,-0.61281 4.710091,-0.89501 5.079551,-0.6271 1.34366,0.97434 -2.577677,7.12813 -5.00031,7.84698 -2.2172,0.65791 -2.165464,0.83497 0.473862,1.62194 2.962768,0.88339 2.962768,0.88339 0,0.97535 -2.185669,0.0679 -2.448363,0.32843 -1.001571,0.9936 1.612776,0.74148 1.588264,1.17206 -0.138064,2.42385 -1.34698,0.97673 -1.690052,2.28368 -0.957405,3.64725 0.627987,1.16879 0.764838,3.76459 0.304113,5.76844 -0.683983,2.97484 -0.200551,3.99187 2.634595,5.54261 3.46243,1.89384 3.46453,1.90968 0.73999,5.57825 -2.123943,2.85989 -2.498856,4.80779 -1.683841,8.74883 l 1.04845,5.069813 4.311921,-4.31633 c 7.55921,-7.566933 11.03533,-8.480303 27.11401,-7.124373 12.43381,1.04857 19.45251,-0.28506 25.46311,-4.83823 4.13792,-3.13459 4.38262,-3.81897 4.38262,-12.25796 0,-8.459 -0.2733,-9.21785 -5.09956,-14.15982 -2.80476,-2.87199 -8.733,-8.25447 -13.17385,-11.96105 -4.44085,-3.70659 -7.6934,-7.01542 -7.22789,-7.35298 0.46549,-0.33756 2.06069,0.45293 3.54485,1.75664 5.66055,4.97231 6.74439,5.53464 8.38065,4.34812 1.11463,-0.80821 1.0557,-1.52103 -0.20098,-2.4323 -0.97771,-0.70898 -1.77766,-2.64254 -1.77766,-4.29682 0,-2.7076 -0.50533,-3.00776 -5.06367,-3.00776 -7.71547,0 -9.57982,-0.90191 -13.52031,-6.54071 -1.99799,-2.8591 -5.05158,-5.749 -6.78573,-6.42199 -2.77774,-1.07798 -3.0487,-1.86222 -2.27665,-6.58915 1.86781,-11.4359505 10.07458,-17.1089805 26.9881,-18.65587046 7.19392,-0.65794 7.72735,-0.52171 13.5241,3.45398996 7.13837,4.89588 10.83625,9.7725105 10.83625,14.2905305 0,2.63262 0.6234,3.27596 3.17439,3.27596 1.82164,0 6.24061,2.22343 10.36967,5.21755 6.5718,4.76546 8.10743,7.22495 7.30586,11.70114 -0.14548,0.81244 1.50051,1.34275 4.16773,1.34275 5.4905,0 8.89165,3.28631 13.27892,12.83046 3.55892,7.74213 4.0537,11.8762 1.42138,11.8762 -0.9684,0 -0.30178,0.98561 1.48138,2.19025 2.5464,1.72026 3.23431,3.3914 3.20586,7.78796 -0.0464,7.17446 -2.44694,14.71208 -5.45232,17.1202 -1.52155,1.21918 -2.43382,4.1334 -2.57917,8.2392 -0.12369,3.494043 -1.01722,7.045083 -1.98562,7.891203 -1.40932,1.23137 -1.02527,2.0394 1.92424,4.04869 2.02673,1.38067 3.68495,3.15114 3.68495,3.93436 0,0.78323 1.20274,1.42406 2.67274,1.42406 3.89775,0 15.09851,5.45099 20.65901,10.05396 5.18102,4.28885 6.0964,8.21465 3.04699,13.06777 -2.12732,3.38562 -0.076,4.76543 7.12289,4.79109 2.53809,0.009 6.20451,0.91796 8.1476,2.01982 5.7199,3.24351 18.705,7.66445 22.51199,7.66445 3.46928,0 8.42643,2.92814 8.42643,4.97742 0,0.57671 3.97851,3.68031 8.84113,6.89692 5.16579,3.41715 8.84138,6.74182 8.84175,7.9976 3.4e-4,1.18206 0.44522,5.92574 0.9886,10.5415 l 0.98799,8.39228 -5.01525,3.78414 c -2.75838,2.08128 -6.86703,4.48737 -9.13031,5.34687 -5.06477,1.92336 -13.42914,1.07815 -19.36205,-1.95652 -3.76579,-1.92621 -4.90002,-2.01986 -10.55555,-0.87164 -3.87658,0.78704 -10.00223,1.02072 -15.77947,0.60195 -13.30472,-0.9644 -22.15767,-0.97816 -38.33001,-0.0596 -16.56296,0.94077 -18.48367,1.8456 -24.47802,11.53137 -3.41564,5.51907 -3.92474,7.54254 -3.30538,13.1377 0.70278,6.34854 2.61968,10.09115 18.07821,35.29609 2.10908,3.43881 3.15567,5.94808 2.32578,5.57616 -2.03624,-0.91256 -1.90501,-0.0937 0.7132,4.45018 2.62209,4.55062 2.70469,5.01129 0.74069,4.13111 -1.90163,-0.85222 -1.88298,0.13421 0.0521,2.75614 1.11153,1.50603 1.05475,2.07777 -0.20634,2.07777 -1.21642,0 -1.47678,1.61054 -0.86546,5.35346 0.60914,3.72963 0.36142,5.27732 -0.81672,5.10246 -0.93009,-0.13804 -1.96923,0.68161 -2.30917,1.82145 -0.86039,2.88485 -4.28759,5.23869 -5.52083,3.79175 -0.67486,-0.7918 -1.55572,-0.78032 -2.9155,0.038 -1.07168,0.64493 -3.6143,0.86944 -5.6503,0.4989 -2.69844,-0.49112 -4.11991,-0.1397 -5.24435,1.2965 -1.34767,1.72131 -1.95094,1.7887 -4.77516,0.53338 -2.74325,-1.21934 -3.57137,-1.19124 -5.47016,0.18565 -1.77831,1.28952 -2.81316,1.36394 -5.04235,0.36265 -2.20382,-0.98991 -3.07219,-0.94838 -4.05262,0.1938 -1.00029,1.16533 -1.91014,1.19661 -4.58733,0.15764 -2.67372,-1.03763 -3.58503,-1.00799 -4.57084,0.14866 -0.98063,1.15055 -1.60577,1.17314 -3.07065,0.11091 -2.21526,-1.60636 -6.73051,-1.75779 -7.42409,-0.24898 -0.27426,0.59664 -1.38448,0.0563 -2.46713,-1.20085 z"
     id="path2997"
     style="fill:none;stroke:#ffffff;stroke-width:0.50126702;stroke-miterlimit:4;stroke-dasharray:none"
     inkscape:connector-curvature="0" />
</svg>
